# Blender v3.0.0 OBJ File: ''
# www.blender.org
mtllib diamond2.mtl
o obj_0
v -6.281157 -3.525360 0.815207
v -5.311217 -3.525359 -1.524761
v -4.342270 -3.525362 5.495142
v 10.265400 -0.547039 0.815208
v 6.956486 1.769102 0.815209
v 8.811980 -0.547041 4.325656
v 5.017599 -3.525359 -3.864728
v 5.017599 -3.525362 5.495142
v 2.677632 -3.525358 -4.833675
v 6.956486 -3.525360 0.815207
v 5.017599 1.769100 5.495143
v 7.357566 -0.547042 7.835111
v 0.337664 -3.525362 7.434029
v 0.337664 -3.525358 -5.803614
v 3.646579 4.086235 0.815210
v 5.017599 1.769103 -3.864727
v 0.337664 1.769099 7.434030
v -4.342270 1.769100 5.495143
v -3.172783 -0.547042 9.289523
v -4.342270 -3.525359 -3.864728
v 3.848112 -0.547042 9.289523
v 0.337664 -0.547043 10.742944
v 2.677632 4.086235 3.155177
v -6.281157 1.769102 0.815209
v -2.002303 4.086236 -1.524758
v -8.621124 -0.547039 -1.524760
v -9.590072 -0.547039 0.815208
v -4.342270 1.769103 -3.864727
v -7.651186 -0.547038 -3.864727
v -6.682237 -0.547037 -6.204693
v -5.512750 -2.036198 -5.035207
v -7.935118 -2.036200 0.815208
v -2.971250 4.086235 0.815210
v 0.337664 1.769104 -5.803613
v 0.337664 4.086236 -2.493705
v 2.677632 4.086236 -1.524758
v 0.337664 6.402376 0.815210
v -2.002303 4.086235 3.155177
v 0.337664 4.086234 4.124124
v -6.682237 -0.547042 7.835111
v -8.136650 -0.547041 4.325656
v -3.172783 -0.547037 -7.659106
v 0.337664 -2.036197 -7.457575
v 5.017599 -0.547037 -7.173642
v 2.677632 -0.547037 -8.143580
v 8.811980 -0.547038 -2.695239
v 6.188079 -2.036198 -5.035207
v 7.357566 -0.547037 -6.204693
v 0.337664 -0.547036 -9.112528
vn -0.4310 -0.9023 -0.0000
vn -0.3479 -0.9264 -0.1441
vn -0.3047 -0.9024 0.3047
vn 0.9986 0.0519 0.0000
vn 0.5734 0.8192 0.0000
vn 0.9221 0.0619 0.3820
vn 0.3046 -0.9024 -0.3047
vn 0.3047 -0.9024 0.3047
vn 0.1441 -0.9264 -0.3479
vn 0.4309 -0.9024 0.0000
vn 0.4055 0.8192 0.4055
vn 0.7061 0.0519 0.7061
vn 0.0000 -0.9024 0.4309
vn 0.0001 -0.9023 -0.4310
vn 0.5735 0.8192 0.0000
vn 0.4055 0.8192 -0.4055
vn 0.0000 0.8192 0.5734
vn -0.4055 0.8192 0.4055
vn -0.3820 0.0619 0.9221
vn -0.3047 -0.9024 -0.3046
vn 0.3820 0.0619 0.9221
vn 0.0000 0.0519 0.9986
vn -0.5734 0.8192 0.0000
vn -0.4055 0.8192 -0.4055
vn -0.9221 0.0618 -0.3820
vn -0.9986 0.0519 0.0000
vn -0.9221 0.0620 -0.3819
vn -0.7062 0.0520 -0.7060
vn -0.4731 -0.7432 -0.4730
vn -0.6689 -0.7433 0.0000
vn -0.5735 0.8192 0.0000
vn -0.0000 0.8192 -0.5734
vn 0.0000 0.8192 -0.5735
vn 0.0000 1.0000 0.0000
vn 0.0000 0.8192 0.5735
vn -0.7062 0.0519 0.7061
vn -0.9221 0.0617 0.3820
vn -0.3819 0.0619 -0.9221
vn 0.0000 -0.7433 -0.6689
vn 0.3821 0.0621 -0.9220
vn 0.3819 0.0619 -0.9221
vn 0.9221 0.0619 -0.3819
vn 0.4730 -0.7432 -0.4731
vn 0.7060 0.0520 -0.7062
vn 0.0000 0.0519 -0.9986
usemtl color_7720667
s 1
f 1//1 2//2 3//3
f 4//4 5//5 6//6
f 7//7 8//8 9//9
f 10//10 8//8 7//7
f 6//6 11//11 12//12
f 13//13 9//9 8//8
f 14//14 9//9 13//13
f 15//15 5//5 16//16
f 17//17 18//18 19//19
f 14//14 13//13 20//20
f 2//2 20//20 13//13
f 13//13 3//3 2//2
f 13//13 21//21 22//22
f 8//8 12//12 21//21
f 5//5 11//11 6//6
f 21//21 13//13 8//8
f 23//11 11//11 5//5
f 5//5 15//15 23//11
f 17//17 21//21 11//11
f 17//17 22//22 21//21
f 12//12 11//11 21//21
f 24//23 25//24 26//25
f 27//26 24//23 26//25
f 10//10 4//4 6//6
f 6//6 12//12 8//8
f 28//24 29//27 26//25
f 29//27 28//24 30//28
f 8//8 10//10 6//6
f 31//29 32//30 29//27
f 25//24 24//23 33//31
f 29//27 32//30 26//25
f 32//30 27//26 26//25
f 34//32 35//33 36//16
f 35//33 37//34 36//16
f 18//18 38//18 33//31
f 38//18 37//34 33//31
f 34//32 28//24 35//33
f 39//35 37//34 38//18
f 39//35 23//11 37//34
f 1//1 3//3 32//30
f 32//30 3//3 40//36
f 13//13 22//22 19//19
f 40//36 41//37 32//30
f 14//14 20//20 31//29
f 41//37 27//26 32//30
f 3//3 13//13 19//19
f 31//29 30//28 42//38
f 17//17 39//35 38//18
f 31//29 42//38 43//39
f 22//22 17//17 19//19
f 35//33 28//24 25//24
f 17//17 38//18 18//18
f 39//35 17//17 11//11
f 25//24 37//34 35//33
f 28//24 26//25 25//24
f 11//11 23//11 39//35
f 23//11 15//15 37//34
f 37//34 25//24 33//31
f 42//38 28//24 34//32
f 36//16 15//15 16//16
f 42//38 30//28 28//24
f 2//2 31//29 20//20
f 31//29 29//27 30//28
f 32//30 31//29 2//2
f 32//30 2//2 1//1
f 44//40 45//41 16//16
f 18//18 33//31 24//23
f 41//37 18//18 24//23
f 24//23 27//26 41//37
f 40//36 18//18 41//37
f 19//19 40//36 3//3
f 19//19 18//18 40//36
f 36//16 37//34 15//15
f 46//42 16//16 5//5
f 5//5 4//4 46//42
f 9//9 47//43 7//7
f 47//43 45//41 44//40
f 9//9 14//14 43//39
f 48//44 47//43 44//40
f 31//29 43//39 14//14
f 43//39 47//43 9//9
f 43//39 49//45 45//41
f 45//41 47//43 43//39
f 34//32 45//41 49//45
f 42//38 49//45 43//39
f 16//16 48//44 44//40
f 42//38 34//32 49//45
f 46//42 48//44 16//16
f 7//7 47//43 10//10
f 48//44 46//42 47//43
f 4//4 10//10 47//43
f 46//42 4//4 47//43
f 36//16 16//16 45//41
f 45//41 34//32 36//16
